{
  "accessors": [
    {
      "bufferView": 2,
      "componentType": 5126,
      "count": 2204,
      "max": [
        0.20002439618110657,
        0.20020000636577606,
        0.036054309457540512
      ],
      "min": [
        -0.20020000636577606,
        -0.20015609264373779,
        0.00030000039259903133
      ],
      "type": "VEC3"
    },
    {
      "bufferView": 2,
      "byteOffset": 26448,
      "componentType": 5126,
      "count": 2204,
      "max": [
        1,
        1,
        0.99919390678405762
      ],
      "min": [
        -1,
        -1,
        -0.99920809268951416
      ],
      "type": "VEC3"
    },
    {
      "bufferView": 1,
      "componentType": 5126,
      "count": 2204,
      "max": [
        0.96861410140991211,
        0.96858638525009155
      ],
      "min": [
        0.031385868787765503,
        0.03141355887055397
      ],
      "type": "VEC2"
    },
    {
      "bufferView": 0,
      "componentType": 5125,
      "count": 9768,
      "max": [
        2203
      ],
      "min": [
        0
      ],
      "type": "SCALAR"
    }
  ],
  "asset": {
    "extras": {
      "author": "russelbradley (https://sketchfab.com/russelbradley)",
      "license": "CC-BY-4.0 (http://creativecommons.org/licenses/by/4.0/)",
      "source": "https://sketchfab.com/3d-models/nus-me2162-cymbal-93ee7864e51c4c28bfd137ce0a965457",
      "title": "NUS ME2162 Cymbal"
    },
    "generator": "Sketchfab-9.38.0",
    "version": "2.0"
  },
  "bufferViews": [
    {
      "buffer": 0,
      "byteLength": 39072,
      "byteOffset": 0,
      "name": "floatBufferViews",
      "target": 34963
    },
    {
      "buffer": 0,
      "byteLength": 17632,
      "byteOffset": 39072,
      "byteStride": 8,
      "name": "floatBufferViews",
      "target": 34962
    },
    {
      "buffer": 0,
      "byteLength": 52896,
      "byteOffset": 56704,
      "byteStride": 12,
      "name": "floatBufferViews",
      "target": 34962
    }
  ],
  "buffers": [
    {
      "byteLength": 109600,
      "uri": "scene.bin"
    }
  ],
  "images": [
    {
      "uri": "textures/Appearance_baseColor.jpeg"
    }
  ],
  "materials": [
    {
      "doubleSided": true,
      "emissiveFactor": [
        0,
        0,
        0
      ],
      "name": "Appearance",
      "pbrMetallicRoughness": {
        "baseColorFactor": [
          1,
          1,
          1,
          1
        ],
        "baseColorTexture": {
          "index": 0,
          "texCoord": 0
        },
        "metallicFactor": 0.3908672731031631,
        "roughnessFactor": 0
      }
    }
  ],
  "meshes": [
    {
      "primitives": [
        {
          "attributes": {
            "NORMAL": 1,
            "POSITION": 0,
            "TEXCOORD_0": 2
          },
          "indices": 3,
          "material": 0,
          "mode": 4
        }
      ]
    }
  ],
  "nodes": [
    {
      "children": [
        1
      ],
      "name": "RootNode (gltf orientation matrix)",
      "rotation": [
        -0.70710678118654746,
        -0,
        -0,
        0.70710678118654757
      ]
    },
    {
      "children": [
        2
      ],
      "name": "RootNode (model correction matrix)"
    },
    {
      "children": [
        3
      ],
      "name": "Cymbal.obj.cleaner.materialmerger.gles"
    },
    {
      "mesh": 0,
      "name": ""
    }
  ],
  "samplers": [
    {
      "magFilter": 9729,
      "minFilter": 9987,
      "wrapS": 33071,
      "wrapT": 33071
    }
  ],
  "scene": 0,
  "scenes": [
    {
      "name": "OSG_Scene",
      "nodes": [
        0
      ]
    }
  ],
  "textures": [
    {
      "sampler": 0,
      "source": 0
    }
  ]
}

